<?xml version="1.0" encoding="utf-8"?>
<!-- Generator: Adobe Illustrator 18.0.0, SVG Export Plug-In . SVG Version: 6.00 Build 0)  -->
<!DOCTYPE svg PUBLIC "-//W3C//DTD SVG 1.1//EN" "http://www.w3.org/Graphics/SVG/1.1/DTD/svg11.dtd">
<svg version="1.1" id="Layer_1" xmlns="http://www.w3.org/2000/svg" xmlns:xlink="http://www.w3.org/1999/xlink" x="0px" y="0px"
	 viewBox="0 0 406.8 202.5" style="enable-background:new 0 0 406.8 202.5;" xml:space="preserve">
<style type="text/css">
	.st0{fill:#050402;}
	.st1{opacity:0.25;}
	.st2{fill:#A3A3A3;}
	.st3{display:none;fill:none;stroke:#000000;stroke-miterlimit:10;}
	.st4{fill:#141414;}
</style>
<rect x="894.1" y="31.9" class="st0" width="962.6" height="561.6"/>
<g class="st1">
	<g id="XMLID_1_">
		<g>
			<path class="st2" d="M398.8,63.3c0.9,0.8,0.9,2,0.3,3.2c-0.8,1.5-1.4,3-2.3,4.4c-2.4,3.8-4.6,7.6-3.7,12.4c0,0.2,0,0.4-0.1,0.6
				c-4.1,5.3-7.6,11.2-13.7,14.7c-2.5,1.4-4.2,3.7-6.2,5.7c-5.7,5.8-11.8,11.2-18.2,16.2c-5.2,4.1-10.4,8.2-15.7,12.2
				c-2.5,1.9-5.8,0.5-7-3.1c-1.5-4.2-2.8-8.4-3.7-12.7c-0.6-3-1.9-5.8-4.8-7.5c-1.8-1.1-2.9-2.7-4-4.6c-1.7-3.2-3.8-6.2-7.7-7
				c-0.9-0.2-1.1-0.9-1.4-1.5c-1.4-2.5-2-5.5-3.2-8c-2-4.2-2.4-10-8.7-10.9c-0.6-0.1-1.6-0.7-1.7-1.2c-1.9-6.7-6.9-11.2-11.3-16
				c-2.3-2.6-4.5-4.7-4.2-8.4c0-0.5-0.6-0.8-1.2-0.8c-0.7,2.6-1.3,5.2-2,8c-1.4-0.9-1.9-2.2-2.2-3.6c-0.5-0.3-0.6-0.8-0.6-1.3
				c-1.7-1-2.6-2.5-3.3-4.3c-0.6-0.2-1-0.7-1.2-1.3c-0.8,0.1-1.6,0.1-2.3,0.2c0,0,0,0,0,0c-2.9,2.4-0.7,4.9-0.2,7.3l0,0
				c1.5,1.6,2.2,3.7,3.1,5.6l0,0c0.2,1.3,1.1,1.6,2.2,1.6c-0.1,2.1,1.7,5.6,3.1,6.3c0,0,0,0,0,0c1.6,1.8,3,3.7,3.9,5.9
				c0.5,0.7,0.9,1.3,1.4,2c0.4,2,0.7,4,2.9,4.9c0.1,0.2,0.2,0.4,0.2,0.6c0.1,1.7-0.2,3.5,1.8,4.4l0,0c0,1.7,0.8,2.8,2.5,3.1l0,0
				c0.1,1.2,0.9,1.2,1.8,1.2l0,0c1.7,1.6,0.6,4.9,3.6,5.6c0,0.8,0.1,1.7,0.1,2.5c-0.8,3.4,0.7,6,3.2,8.1l0,0
				c0.2,0.2,0.4,0.4,0.6,0.5l0,0c0.8,1.3,0.6,3.6,3.1,3.3c0.4,0,0.9,0,1.3,0.1c0.4,0.2,0.8,0.3,1.1,0.5c0.2,0.2,0.5,0.5,0.7,0.7
				c1.1,0.6,1.4,1.8,1.8,2.8c1.6,3.9,4,7,7.3,9.5c1.6,0.7,3.2,1.4,4.7,2.1c0.2,0.6,0.7,0.6,1.2,0.6c0.8,1.4,3,1.7,3.2,3.7l0,0
				c0,0,0,0,0,0c0.3,0.3,0.5,0.5,0.8,0.8c3.7,2.5,7.8,4.2,8.3,9.8c0.4,4.3,5.2,5.6,8.8,3.1c2-1.4,3.9-2.7,6.6-2.8
				c2.2-0.1,3.5-2.5,5.4-3.5c1.4-0.7,2.7-1.8,4.3-1.5c4.3,0.7,7.2-1.7,10-4.4c0.6-0.5,1.1-1.6,2-1.1c0.9,0.5,1.3,1.8,0.8,2.7
				c-2.2,4.7-2.5,9.9-4.6,14.7c-2.1,4.9-4.5,9.8-6.1,15.1c-1.3,4.5-4.1,8.9-7.6,12.3c-3.8,3.8-7.4,7.7-12,10.8
				c-3.8,2.6-6.6,6.7-9.8,10.2c-1.2,1.4-2.3,2.9-3.4,4.4c-0.4-0.3-0.8-0.5-1.3-0.8c0-5.9-0.1-11.7,0.1-17.6c0-1.4,1.4-2.4,2.6-3
				c4.8-2.6,8.6-6.9,14.2-8c0.8-0.2,1.1-0.8,1.6-1.4c3.1-4.2,6.2-8.3,9.4-12.4c1-1.2,1.7-2.2,1-3.9c-0.8-1.9-2.3-1.4-3.7-1.4
				c-4.5-0.1-8.9,0.2-13.3-1c-1-0.3-1.8-0.6-2.7-1.3c-3-2.9-6.1-5.8-9.2-8.6c-1.5-1.4-0.9-3.1-0.8-4.7c0-2-0.4-3.3-2.3-4.3
				c-2-1.1-3.7-2.6-5.7-3.8c-1.9-1.2-3.8-1.9-6.2-1.7c-2,0.2-4.1,0.4-5.9-1.3c-0.9-0.8-2.1-0.2-3,0.8c-1.2,1.5-2.3,3.1-4.7,2.7
				c-0.9-0.1-1.5,1.1-2.2,1.7c0.3,1-0.2,1.8-0.8,2.5c-0.8,1.9,0.6,5.1-2.9,5.6l0,0c-0.7,1.2-1,2.6-2.3,3.3c-0.5,0.6-1,1.1-1.5,1.7
				c-0.1,1-0.1,2.1-0.2,3.1c0.1,2.5-3.2,3.6-2.5,6.3c0,0.4,0,0.8-0.1,1.2c-0.2,2.6,0.6,5.4-1.6,7.5c-0.3,0.5-0.8,0.5-1.3,0.4
				c-0.3-0.3-0.5-0.1-0.6,0.2c-0.7,0.6-1.4,1.3-2.1,1.9c-1.1,1.3-0.2,2.6,0.2,3.8l0,0c1.5,0.1,2.8,0.3,3.4,2
				c0.4,1.1,1.4,1.9,2.6,1.9c2.6-0.1,3.2,1.7,3.7,3.6c0.1,0.4,0.1,0.9,0.2,1.3c0.6,0.5,1.9,1.2,0.2,1.7c-1.8,0.5-3.7,1.5-5.7,0.7
				c-0.6,0.2-1.3,0.4-1.9,0.7c-4.3,1.9-8.4,0.2-12.5-0.7c-4.6,0.2-9.2,0.4-13.8-0.1c-1.9-0.6-3.9-0.5-5.8-0.5
				c-1.1,0-2.4,0.2-2.9-1.2c-0.4-0.3-0.8-0.5-1.3-0.8c-2.7-1.4-4.6-3.7-6.2-6.1l0,0c-2.7-1.8-5-4.1-7.4-6.3
				c-0.2-0.2-0.5-0.5-0.7-0.7c-1-0.5-2.7,1-3-1.1c0-1,0-2.1,0-3.1c0.1-4-1.9-7.1-4.5-9.8c-0.9-0.9-1.8-1.7-1.1-3.2
				c0.9-1.9-2.1-1.7-2-3.3c0-0.8,0-1.7,0-2.5c2.4-0.8,3.3-2.5,3.1-5c0.1-0.8,0.1-1.7,0.2-2.5c1.4-1,2.7-2.1,4.7-2
				c1.3,0.1,2.7-0.5,1.9-2.4c0-7.3,0-14.6,0-21.9c-1.6-0.9-3.1-1.8-4.4-3.1l0,0c-3.3-1.5-6.7-2.7-9.6-4.8l0.1-0.2l-0.2,0.2
				c-1.7-0.7-3.4-1.4-4.8-2.7c-0.2-0.1-0.4-0.2-0.6-0.2c-0.7,0-1.1-0.4-1.2-1l0,0c-0.9-0.3-2-0.1-2.7-0.9c-0.5-0.1-0.9-0.4-1-0.9
				l0,0c-0.5-1.8-1.8-1.9-3.2-1.7c-0.1-0.6-0.5-0.7-1-0.8l-0.1-0.1c-2-1.7-3.7-4.1-6.9-3.6l0,0c-1-2.8-3.3-2.7-5.6-2.5
				c-1.5,0-3,0-4.4,0c-1.4-0.7-2,0.1-2.5,1.2l-0.1,0.1c-0.7,0.1-1.1,0.5-1.2,1.1c-2.2,2.5-3.8,0-4.9-1c-2.9-2.7-6.6-3.9-10-2.4
				c-4.5,2-8.9,4.5-13,7.3c-0.8,0.6-1.7,0.8-2.6,1c-4,0.9-7.8,2.3-11.4,4.3c-0.3,0.2-0.7,0.2-0.8,0.4c-2.5,4.8-7.1,3.8-11.2,4.2
				c-1.8,0.2-3.6,0.2-4.2-2.2c0-0.2-0.1-0.5-0.3-0.5c-5.4-2.9-7.6-8.6-11.4-12.9c-2.7-3-5.1-6.5-8-9.2c-3.7-3.5-6.7-7.6-10.6-10.9
				c-0.6-0.5-1.2-1.2-1.6-1.9c-2-3.1-7.8-5-11.3-3.6c-1.1,0.5-1.1,1.4-1,2.4c0.4,7.4-0.8,14.8-2.1,21.8c-1.3,7.2,0.2,14.5-1.9,21.5
				c-0.2,0.5,0.1,1.2,0.4,1.8c0.4,0.8,1.5,1.4,0.4,2.4c-0.9,0.8-1.7,0-2.6-0.3c-5-2-9.9-4.2-15-5.8c-3-1-6.3-1-9-2.9
				c-0.5-0.3-1.3-0.5-1.8,0.1c-2.4,2.9-2.4,0-2.9-1.3c-1.6-4-4.7-6.3-8.5-7.8c-0.8-0.3-1.6-0.6-2.4-0.9c-1.6-0.5-1.7-1.6-0.6-2.5
				c4-3.4,2.7-7.6,2-11.8c-0.1-0.8-0.4-1.4,0.3-1.9c2-1.7,1.2-3.2-0.2-4.7c-2.7-2.9-2.5-6.3,0.3-9.2c3.4-3.6,6.7-7.2,10.1-10.8
				c2.1-2.2,4.3-4.9,6.5-7.1c2.4-2.5,4.8-5.8,9.6-5.4c3.8,0.3,6.8-2.6,10.1-4.5c3-1.7,4-4.1,3.7-7.4c-0.1-1.6,0.7-3.1,1.8-4.2
				c2.5-2.6,4.9-5.6,7.9-7.5c2.1-1.4,4.7-2.2,7-3.5c2-1.1,4.1-1.8,5-4.3c0.3-0.8,1.2-1.4,1.8-2.1c1.2-1.2,2.2-0.8,2.3,0.7
				c0.2,2.2,1.6,3,3.4,3.5c2.3,0.7,4.3,1.9,6.4,3.1c2.2,1.3,4.7,1.5,7-0.2c1.4-1,2.9-1.7,4.6-1.5c1.2,0.1,2.3-0.3,3.3-0.9
				c5.2-3.2,11-1.2,16.5-1.5c1.5-0.1,2.7,2.6,4.6,1.3c1.7-1,3.4-1.1,5.1-0.7c3.9,0.9,7.6,1.2,11.6,0.1c3.2-0.9,4.8,2.2,4.8,5.4
				c0,4.3-0.1,8.3-1.7,12.5c-1.1,2.9,5.6,8.1,8.9,7.5c3.7-0.7,10.6,3.3,12.2,6.8c1,2.2,2.4,3.8,5.2,4.3c3.6,0.6,7.3,1.7,10,4.5
				c1.8,1.8,4,1.3,5.9,0.8c1.8-0.4,2.4-2.4,2.6-4.2c0.1-0.6,0-1.3,0-1.9c0-4.6,3.8-8.2,8.4-8.1c1.7,0,3.1,0.5,4,2
				c1,1.8,2.9,2.7,4.6,2.9c4.1,0.3,8.1,1.6,11.6,3.1c5.5,2.2,10.5-0.8,15.7,0.5c6.7-3.6,14-2.3,21.1-2.5c1.1,0,1.7-0.2,1.8-1.5
				c0.5-4.3,1.6-8.5,1.3-12.9c-0.2-2,1.3-3.6,1.9-5.4c0.3-1,0.9-2.1,0.4-3c-1.3-2.7,0.6-5.4-0.4-8.2c-0.4-1.1,0.8-2.5,2.3-2.2
				c2.4,0.6,4.6,1,6.5-1.1c0.4-0.4,1.4-0.2,2.1-0.2c3.3,0.3,6.4,0,9.3-1.9c2.4-1.6,5.4-2,7.7-4c0.8-0.7,1.5-0.1,2.3,0
				c4.1,0.3,6.4,3,9.2,5.5c1.8,1.6,2,2.8,1.5,4.7c-0.9,3.4-0.3,6.1,3,8.3c2.4,1.6,4.5,3.7,7.2,5c2.2,1.1,4.6,2.2,3.8,5.5
				c-0.1,0.5,0.3,1.4,0.8,1.6c4.9,2.8,4.3,8.2,6,12.5c0.2,0.4,0,1,0.3,1.2c3.9,2.8,6.8,6.8,11.4,8.8c1.7,0.7,2.7,0.1,3.4-1.6
				c0.3-0.6,0.7-1.5,1.6-1.2c0.9,0.2,0.8,1.2,0.7,1.9c-0.3,1.4,0.6,2.8-0.6,4.1c-0.7,0.8,2.7,3.8,4.4,4c6.5,0.5,9.5-1.2,12.6-7.5
				c0.6-1.1,1-2.2,1.4-3.4c-0.3-0.5-0.3-0.9-0.1-1.4c0.4-0.8-0.2-2.5,1.2-2.3c1.4,0.2,0.5,1.6,0.5,2.5c0.2,0.1,0.2,0.3,0.2,0.5
				c-0.1,0.5,0,1,0.4,1.4c-0.2,1.6,0.5,2.9,2,3.4c2.7,0.9,5,2.7,8,3.2C394,59.2,396.6,61.3,398.8,63.3z"/>
			<path class="st2" d="M380.7,50.9c0.5,0.3,0.5,0.8,0.4,1.4C380.7,51.9,380.7,51.4,380.7,50.9z"/>
			<path class="st2" d="M375.8,124.6c0.5,0.9-0.5,0.9-1,0.9c-0.8,0.1-1.5-0.1-1.3-1.1c0.2-1.4,0.5-2.7,0.8-4.5
				C376.1,121.5,375,123.3,375.8,124.6z"/>
			<path class="st2" d="M323.8,131.7L323.8,131.7C323.8,131.7,323.8,131.7,323.8,131.7L323.8,131.7z"/>
			<path class="st2" d="M319.4,127.4c0.5,0.1,1.1-0.1,1.2,0.6C320.1,128,319.6,128,319.4,127.4z"/>
			<path class="st2" d="M304.9,112.4c-0.4-0.2-0.8-0.3-1.1-0.5C304.2,111.7,304.7,111.8,304.9,112.4z"/>
			<path class="st2" d="M302.4,111.9c-2.5,0.3-2.3-1.9-3.1-3.3C301,109.1,301.3,110.8,302.4,111.9z"/>
			<path class="st2" d="M295.5,99.9c1.1,2.7,2.1,5.4,3.2,8.1C296.1,105.9,294.7,103.3,295.5,99.9z"/>
			<path class="st2" d="M291.8,91.8c3.3,0.5,2,4,3.6,5.6C292.3,96.6,293.4,93.3,291.8,91.8z"/>
			<path class="st2" d="M289.9,90.5c0.9,0.1,1.6,0.3,1.8,1.2C290.9,91.7,290,91.7,289.9,90.5z"/>
			<path class="st2" d="M287.4,87.4c1.2,0.7,2.3,1.6,2.5,3.1C288.2,90.2,287.4,89.1,287.4,87.4z"/>
			<path class="st2" d="M285.5,83c1.2,1.2,1.8,2.7,1.8,4.4C285.4,86.4,285.7,84.6,285.5,83z"/>
			<path class="st2" d="M282.4,77.4c1.8,1.2,2.3,3.1,2.9,4.9C283.1,81.4,282.8,79.4,282.4,77.4z"/>
			<path class="st2" d="M282.4,164.1c-0.2,0.1-0.4,0.1-0.6,0.2C281.9,163.9,282.1,163.8,282.4,164.1z"/>
			<path class="st2" d="M277,69.6L277,69.6C277,69.6,277,69.6,277,69.6C277,69.6,277,69.6,277,69.6z"/>
			<path class="st2" d="M277,69.6C277,69.6,277,69.6,277,69.6c-1.4-0.7-3.1-4.2-3.1-6.3h0C275.8,65,276.1,67.4,277,69.6z"/>
			<path class="st2" d="M274,63.3L274,63.3c-1.1,0-2-0.3-2.2-1.6c0.5,0.1,1,0.2,1.4,0.4C273.5,62.3,273.8,62.7,274,63.3z"/>
			<path class="st2" d="M231.1,130.5c0.7,1.9-0.6,2.5-1.9,2.4c-2-0.1-3.3,0.9-4.7,2c-0.6-3,2.2-2.4,3.5-2.9
				C229.1,131.6,230.3,131.4,231.1,130.5z"/>
			<path class="st2" d="M224.3,137.4c0.2,2.4-0.8,4.1-3.1,5C222.2,140.7,223.3,139.1,224.3,137.4z"/>
			<path class="st2" d="M206.7,94.8c-1.2-0.3-2.4-0.7-3.2-1.7c-0.5-0.1-0.9-0.3-1-0.9c0.5,0.1,0.9,0.2,1,0.8
				C204.9,92.9,206.2,93,206.7,94.8z"/>
			<path class="st2" d="M202.4,92.2c-3,0.1-4.4-2.8-6.9-3.6C198.6,88.1,200.3,90.5,202.4,92.2z"/>
			<path class="st2" d="M195.4,88.5c-1.9-0.9-3.7-1.7-5.6-2.5C192.2,85.8,194.5,85.7,195.4,88.5z"/>
			<path class="st2" d="M182.9,87.2c0.5-1.1,1.1-1.9,2.5-1.2C184.7,86.6,183.8,87,182.9,87.2z"/>
			<path class="st2" d="M182.8,87.3c-0.2,0.6-0.5,1-1.2,1.1C181.7,87.7,182.1,87.3,182.8,87.3z"/>
		</g>
		<g>
		</g>
	</g>
</g>
<rect x="795.3" y="31.9" class="st3" width="100" height="100"/>
<text transform="matrix(1 0 0 1 929.9484 61.6496)" style="fill:#FFFFFF; font-family:'Andalus'; font-size:5.2263;">ﺪﻳﺯ ﺔﻠﺋﺎﻋ</text>
<path class="st4" d="M136,80.6H74.3V66c5.2,3.8,10.4,5.7,15.8,5.7h27.2l-2.5-4.8H91.7c-3.5,0-6.5-2.5-8.9-7.4L78,49.9
	c-0.8-1.5-2-2.7-3.8-3.6l7.9-7.8l7.5,15.1c1.4,2.8,3.3,4.2,5.7,4.2h25.1c1,0,2.3,1.5,3.6,4.5l4.3,9.3h7.8V80.6z"/>
<path class="st4" d="M161.4,75.4c0,2-0.4,3.7-1.3,5c-0.5,0.8-1.7,2.1-3.6,3.9l-9.3,8.7c-0.5-2.4-2-5.1-4.6-8
	c-2.6-2.9-4.8-4.4-6.7-4.4h-4.2v-9h4c1.4,0,3.8,1.8,7.5,5.4c1.3,1.3,3.3,3.4,6.2,6.3c0.7-0.9,1.1-1.8,1.1-2.8c0-0.8-0.7-2.5-2-5.2
	l-2.6-5.3c-2-4.1-3.1-6.9-3.1-8.3c0-2.4,1-4.7,2.9-6.9c2.5-2.4,4.9-4.8,7.4-7.1c-0.6,1.8-0.8,3.4-0.8,4.7c0,1.4,0.9,3.9,2.6,7.3
	l4,7.9C160.6,71.1,161.4,73.6,161.4,75.4z M145.2,101.2c0,1-1,3.1-3,6.3c-1.5-2-3.5-3.6-6-4.6c-1.8-0.7-2.6-1.7-2.6-2.9
	c0-1,2.3-3.3,7-7.1c0.1,1.5,0.9,2.9,2.4,4.3C144.4,98.7,145.2,100,145.2,101.2z M159,101.2c0,1-1,3.1-3,6.3c-1.5-2-3.5-3.6-6-4.6
	c-1.8-0.7-2.6-1.7-2.6-2.9c0-1,2.3-3.3,7-7.1c0.1,1.5,0.9,2.9,2.4,4.3C158.2,98.7,159,100,159,101.2z"/>
<path class="st4" d="M212.7,70.4c0,3.1-1.6,6.2-4.7,9.3l-24.6,24.1c-3.7,3.6-8.4,5.4-14.1,5.4c-1.4,0-2.6-0.2-3.7-0.6
	c0.9-0.2,2.1-0.6,3.8-1.1c3.2-1.4,6.6-3.8,10.1-7.2l18-17.5c3.1-3,4.7-5.5,4.7-7.5c0-0.4-1-2.6-3-6.5l-2.7-5.3
	c-2-4.1-3.1-6.9-3.1-8.3c0-2.4,1-4.7,3-6.9c2.5-2.4,5-4.8,7.5-7.1c-0.6,1.8-0.8,3.4-0.8,4.7c0,1.4,0.9,3.9,2.6,7.3l3.9,7.9
	C211.7,65.2,212.7,68.3,212.7,70.4z M193.5,37.7c0,1-1,3.1-3,6.3c-1.5-2-3.5-3.6-6-4.6c-1.8-0.7-2.6-1.7-2.6-2.9c0-1,2.3-3.3,7-7.1
	c0.1,1.5,0.9,2.9,2.4,4.3C192.7,35.2,193.5,36.5,193.5,37.7z"/>
<path class="st4" d="M60.7,122H8.2c1.9-2.4,2.9-4,2.9-4.9c0-0.9-0.5-2.4-1.4-4.4c-0.9-2-1.4-3.8-1.4-5.6c0-3.3,1.2-6.3,3.7-8.7
	l11.6-11.6l-4.2-8l9.4-8.9l4,7.6l4.7-4.7c-1,2.9-1.5,5.6-1.5,8c0,1.9,1.6,6,4.9,12.3l9.5,18.4h10.3V122z M26.9,62
	c0,1.2-1.2,3.6-3.5,7.4c-1.8-2.4-4.1-4.1-7-5.3c-2.1-0.8-3.1-1.9-3.1-3.3c0-1.1,2.7-3.9,8.1-8.3c0.1,1.7,1.1,3.4,2.8,5
	C26,59.1,26.9,60.6,26.9,62z M36.3,111.5l-4.9-9.5c-1.6-3-2.3-5.3-2.3-6.8c-0.4,0.5-1.4,1.7-3.2,3.4c-0.8,0.9-1.3,1.7-1.3,2.4
	c0,1.2,0.4,2.6,1.3,4.2l3.3,6.3C32.2,111.6,34.6,111.6,36.3,111.5z M43,62c0,1.2-1.2,3.6-3.5,7.4c-1.8-2.4-4.1-4.1-7-5.3
	c-2.1-0.8-3.1-1.9-3.1-3.3c0-1.1,2.7-3.9,8.1-8.3c0.1,1.7,1.1,3.4,2.8,5C42.1,59.1,43,60.6,43,62z"/>
<path class="st4" d="M282,122H50.3v-10.5H259c0.9,0,1.8-0.5,2.6-1.4c0.9-0.9,1.3-1.9,1.3-2.9V64.9c0-2.9-2.7-9.1-8-18.6
	c3.1,0,8.2-4.1,15.3-12.3v69.5c0,1.1,1,2.7,3,4.8c2,2.1,3.5,3.2,4.5,3.2h4.4V122z"/>
<path class="st4" d="M311.6,115.8c0,2.3-0.5,4.3-1.5,5.9c-0.6,1-2,2.5-4.2,4.5l-10.8,10.2c-0.6-2.8-2.4-5.9-5.4-9.3
	c-3-3.4-5.6-5.1-7.8-5.1h-4.9v-10.5h4.7c1.6,0,4.5,2.1,8.7,6.3c1.5,1.5,3.9,4,7.2,7.4c0.9-1,1.3-2.1,1.3-3.2c0-0.9-0.8-3-2.3-6.1
	l-3.1-6.2c-2.4-4.8-3.6-8-3.6-9.6c0-2.8,1.1-5.5,3.4-8.1c2.9-2.8,5.7-5.6,8.6-8.3c-0.7,2.1-1,3.9-1,5.4c0,1.7,1,4.5,3,8.5l4.6,9.2
	C310.6,110.8,311.6,113.8,311.6,115.8z M300.3,57.9c-0.8,0.5-2.1,1.4-3.7,2.8l-1.8,2.2c-0.6,0.7-0.8,1.2-0.8,1.4
	c0,0.5,0.3,1,0.9,1.6L298,69c0.9,0.9,1.4,1.9,1.4,3c0,1.2-0.3,2.1-1,2.8l-5,4.9c-1.5,1.4-3.5,2.2-6.1,2.2c-1.2,0-2.1-0.2-2.8-0.6
	c1.2-0.2,2.3-1,3.3-2.2l1.8-2.1c0.9-1,1.3-1.8,1.3-2.4c0-0.4-0.4-1-1.3-1.8l-2.6-2.6c-1.2-1.2-1.7-2.3-1.7-3.3
	c0-1.1,0.6-2.3,1.8-3.4l4.2-4c1.2-1.2,3.3-1.8,6.2-1.8C298.3,57.7,299.2,57.7,300.3,57.9z"/>
<path class="st4" d="M350.7,122h-21.2v-57c0-2.9-2.7-9.1-8-18.6c3.1,0,8.2-4.1,15.3-12.3v69.5c0,1.1,1,2.7,3,4.8
	c2,2.1,3.5,3.2,4.5,3.2h6.5V122z"/>
<path class="st4" d="M402.8,122h-57v-10.5h10.5c-1.1-1-1.7-3-1.7-5.9c0-5.6,3.1-11.3,9.4-17.3l7-6.7c4.6-4.4,7-7,7-7.8
	c0-1.3-0.6-1.9-1.7-1.9h-6.9l15.9-15.8v18.1c0,1.3-0.8,3-2.5,5l-6.1,7.5c-2.8,3.8-4.3,7.3-4.3,10.5c0,5,2.1,8.9,6.2,11.6
	c2.8,1.8,5.4,2.7,7.7,2.7h5.9C394.1,115.2,397.6,118.7,402.8,122z"/>
</svg>
